<mxfile host="app.diagrams.net" modified="2025-05-11T14:34:30.410Z" agent="Mozilla/5.0 (Windows NT 10.0; Win64; x64) AppleWebKit/537.36 (KHTML, like Gecko) Chrome/133.0.0.0 Safari/537.36 OPR/118.0.0.0" version="24.5.2" etag="FhOpeelTlOi_Ir76o6X7" type="github">
  <diagram name="Page-1" id="fjefCwdg-gfHq6Nhun4L">
    <mxGraphModel>
      <root>
        <mxCell id="0" />
        <mxCell id="1" parent="0" />
      </root>
    </mxGraphModel>
  </diagram>
</mxfile>
